<?xml version="1.0" standalone="no"?>
<!DOCTYPE svg PUBLIC "-//W3C//DTD SVG 20010904//EN"
 "http://www.w3.org/TR/2001/REC-SVG-20010904/DTD/svg10.dtd">
<svg version="1.0" xmlns="http://www.w3.org/2000/svg"
 width="1024.000000pt" height="1024.000000pt" viewBox="0 0 1024.000000 1024.000000"
 preserveAspectRatio="xMidYMid meet">
<metadata>
Created by potrace 1.14, written by Peter Selinger 2001-2017
</metadata>
<g transform="translate(0.000000,1024.000000) scale(0.100000,-0.100000)"
fill="#000000" stroke="none">
<path d="M3323 5788 c-24 -5 -43 -13 -43 -19 0 -5 -5 -9 -11 -9 -35 0 -99
-109 -99 -170 0 -77 71 -176 145 -200 48 -16 134 -7 172 16 48 31 82 75 97
128 13 45 14 58 1 99 -37 123 -138 183 -262 155z"/>
<path d="M6840 5791 c-157 -32 -216 -231 -104 -346 59 -61 129 -79 218 -54 43
12 95 58 120 106 20 40 21 140 1 179 -45 89 -139 135 -235 115z"/>
<path d="M4155 4481 c-54 -10 -143 -56 -172 -89 -46 -52 -63 -97 -63 -167 0
-39 6 -78 15 -94 20 -41 88 -96 138 -114 71 -25 148 -47 166 -47 26 0 122 -38
142 -56 29 -26 24 -75 -9 -107 -44 -42 -120 -53 -220 -33 -44 9 -93 23 -109
31 -38 20 -66 19 -97 -6 -31 -25 -35 -70 -7 -98 29 -29 127 -61 219 -72 162
-18 307 20 372 99 74 90 72 225 -4 295 -43 39 -126 76 -231 103 -116 29 -136
36 -163 55 -30 22 -38 70 -17 106 44 75 180 82 323 17 27 -13 37 -13 59 -2 34
16 50 58 37 95 -15 45 -118 82 -241 87 -54 3 -116 1 -138 -3z"/>
<path d="M7005 4481 c-106 -20 -213 -100 -258 -194 -47 -99 -52 -119 -51 -227
1 -244 129 -403 346 -431 128 -17 280 16 325 71 17 21 16 71 -3 95 -16 22 -83
26 -106 7 -7 -6 -40 -16 -74 -23 -91 -19 -173 1 -225 53 -128 129 -91 430 60
494 52 23 147 20 224 -7 79 -27 113 -21 132 24 18 42 0 76 -52 101 -21 11 -46
23 -55 27 -24 12 -216 19 -263 10z"/>
<path d="M2297 4448 c-29 -39 -57 -96 -57 -115 0 -7 -4 -13 -10 -13 -5 0 -10
-5 -10 -11 0 -7 -15 -44 -34 -83 -33 -68 -68 -144 -116 -251 -12 -27 -40 -88
-62 -135 -50 -106 -54 -152 -15 -186 16 -13 36 -24 45 -24 29 0 82 39 92 68
10 26 21 51 43 100 10 22 13 22 209 22 l199 0 10 -29 c6 -17 19 -47 30 -67 10
-21 19 -43 19 -49 0 -19 60 -47 86 -41 31 8 74 52 74 77 0 10 -16 53 -36 96
-20 43 -50 107 -66 143 -16 36 -40 88 -53 115 -13 28 -36 79 -53 115 -16 36
-44 95 -61 131 -17 36 -31 71 -31 77 0 7 -4 12 -10 12 -5 0 -10 8 -10 18 0 37
-42 62 -103 62 -52 0 -58 -3 -80 -32z m113 -233 c11 -24 20 -47 20 -50 0 -8
46 -110 67 -148 27 -51 16 -57 -116 -57 -66 0 -122 4 -125 9 -4 5 3 31 15 58
11 26 27 64 36 83 8 19 20 49 27 65 46 109 45 108 76 40z"/>
<path d="M3084 4459 c-18 -20 -19 -42 -22 -368 -2 -190 0 -365 3 -389 10 -69
24 -72 298 -72 l234 0 27 26 c14 15 26 37 26 49 0 12 -12 34 -26 49 l-27 26
-173 0 -174 0 0 109 0 109 172 2 c190 1 197 3 198 66 0 58 -17 64 -203 64
l-167 0 0 104 0 105 185 3 c198 3 197 3 211 56 4 16 0 33 -13 50 l-20 27 -255
3 c-248 2 -255 2 -274 -19z"/>
<path d="M4870 4453 c-16 -20 -20 -36 -16 -58 11 -53 26 -60 149 -65 l112 -5
3 -318 c2 -286 4 -320 20 -336 46 -48 91 -50 139 -5 l28 26 3 319 3 319 103 0
c89 0 107 3 130 21 34 27 36 77 3 107 -23 22 -29 22 -339 22 l-317 0 -21 -27z"/>
<path d="M5862 4457 c-22 -23 -22 -27 -22 -401 l0 -377 25 -24 24 -25 240 0
c236 0 240 0 267 23 33 28 35 70 5 100 -20 20 -34 22 -199 27 l-177 5 -3 85
c-5 141 -19 131 174 129 144 0 168 2 185 17 26 23 25 76 -2 100 -19 17 -39 19
-181 20 -88 1 -164 6 -169 11 -6 6 -9 50 -7 99 l3 89 181 5 c157 4 183 7 199
23 25 25 22 74 -6 98 -20 18 -40 19 -269 19 -245 0 -247 0 -268 -23z"/>
<path d="M7685 4456 l-30 -24 -3 -359 c-3 -318 -1 -362 13 -389 33 -62 91 -70
141 -20 l34 34 0 145 0 146 28 3 c15 2 79 1 142 -2 l115 -5 3 -152 3 -152 33
-26 c18 -14 41 -25 50 -25 33 0 74 30 85 61 18 51 15 690 -3 734 -24 57 -88
73 -136 34 -24 -20 -25 -27 -30 -168 l-5 -146 -142 -3 -143 -3 0 131 c0 77 -5
140 -11 153 -30 59 -94 73 -144 33z"/>
<path d="M3431 3064 c0 -11 3 -14 6 -6 3 7 2 16 -1 19 -3 4 -6 -2 -5 -13z"/>
</g>
</svg>
